Coordinates
version=1
nRows=10
nColumns=40
inDegrees=yes

Units are S.I. units (second, meters, Newtons, ...)
Angles are in degrees.

endheader
time	pelvis_tilt	pelvis_list	pelvis_rotation	pelvis_tx	pelvis_ty	pelvis_tz	hip_flexion_r	hip_adduction_r	hip_rotation_r	knee_angle_r	knee_angle_r_beta	ankle_angle_r	subtalar_angle_r	mtp_angle_r	hip_flexion_l	hip_adduction_l	hip_rotation_l	knee_angle_l	knee_angle_l_beta	ankle_angle_l	subtalar_angle_l	mtp_angle_l	lumbar_extension	lumbar_bending	lumbar_rotation	arm_flex_r	arm_add_r	arm_rot_r	elbow_flex_r	pro_sup_r	wrist_flex_r	wrist_dev_r	arm_flex_l	arm_add_l	arm_rot_l	elbow_flex_l	pro_sup_l	wrist_flex_l	wrist_dev_l
      1.71778571	     -5.73542059	     -5.45201388	      9.74802930	      1.05685804	      0.92122892	      0.47523092	      4.31767486	      2.64840966	    -17.79263774	     12.41140439	     12.41140439	     15.48368052	     -2.12491186	     -4.86722762	     29.73473134	     -5.97342452	      0.22009151	     22.55493924	     22.55493924	      5.05568679	     -9.73130143	      2.95915889	    -10.07709580	      3.65069743	      2.53297392	     35.34261101	    -12.54369675	     -2.09157485	     80.81775976	     44.64025580	      0.00000000	      0.00000000	     -5.82946441	     -6.85804045	     -9.22320511	     22.28559373	     46.57380662	      0.00000000	      0.00000000
      1.73057143	     -5.69738677	     -5.43558557	      9.60944497	      1.05879084	      0.92053045	      0.47301106	      3.86442639	      2.52921759	    -17.59766887	     12.60599792	     12.60599792	     15.80972457	     -2.13714230	     -4.94055555	     29.26452272	     -5.93087281	      0.13949965	     22.92090015	     22.92090015	      5.03552816	     -9.90632469	      2.89729265	     -9.92862237	      3.58304723	      2.61566982	     34.69868819	    -12.20536538	     -1.92086708	     80.64788818	     44.63885654	      0.00000000	      0.00000000	     -5.87997612	     -6.95487791	     -9.21414606	     22.26627568	     46.57099796	      0.00000000	      0.00000000
      1.74335714	     -5.58423963	     -5.29525336	      9.48740741	      1.06064307	      0.92014652	      0.47065330	      3.47500997	      2.22197605	    -17.40430547	     13.11361057	     13.11361057	     16.06245209	     -2.26416158	     -4.89218220	     28.80498642	     -5.76065644	      0.09200466	     23.41777979	     23.41777979	      5.11635973	    -10.15112071	      2.68251057	     -9.94597722	      3.30014145	      2.61458440	     33.86288583	    -11.85506450	     -1.75183310	     80.25996871	     44.64551951	      0.00000000	      0.00000000	     -5.83157757	     -7.12377305	     -9.17301566	     22.26764277	     46.56357634	      0.00000000	      0.00000000
      1.75614286	     -5.65549031	     -5.11164665	      9.36104589	      1.06210720	      0.91964081	      0.46813003	      3.67081654	      1.70296742	    -17.14706121	     14.37782732	     14.37782732	     16.65824908	     -2.65129692	     -4.35304676	     28.50231133	     -5.47539341	      0.11120686	     23.72203522	     23.72203522	      5.12843420	    -10.53006120	      2.17398434	     -9.74725116	      2.96256930	      2.60467326	     33.24636270	    -11.56321034	     -1.64514851	     79.17780526	     44.68719277	      0.00000000	      0.00000000	     -5.65469680	     -7.25092694	     -8.93322230	     22.29868036	     46.51629524	      0.00000000	      0.00000000
      1.76892857	     -5.48357293	     -5.00123632	      9.34336463	      1.06374782	      0.91980467	      0.46540624	      3.26628980	      1.40127704	    -17.02869556	     14.91905126	     14.91905126	     16.74745360	     -2.80159429	     -4.28068697	     28.02693449	     -5.27523420	      0.20964309	     24.12678293	     24.12678293	      5.45818279	    -10.74094612	      1.92485569	     -9.85095528	      2.78953522	      2.49221751	     32.24333066	    -11.27200082	     -1.44085275	     78.69862248	     44.69387745	      0.00000000	      0.00000000	     -5.43407765	     -7.38279604	     -8.89480354	     22.38547496	     46.51259020	      0.00000000	      0.00000000
      1.78171429	     -5.30686300	     -4.83068901	      9.29958260	      1.06517811	      0.92014548	      0.46250107	      3.13681644	      0.92269756	    -16.88785556	     16.00131773	     16.00131773	     16.86158927	     -3.14657734	     -4.23852871	     27.53683476	     -5.00974491	      0.27435130	     24.51187227	     24.51187227	      5.83081567	    -10.98824486	      1.65871505	    -10.01167546	      2.58842756	      2.45514879	     31.18475384	    -11.11729784	     -1.21424356	     77.93865722	     44.70955355	      0.00000000	      0.00000000	     -5.07283049	     -7.51208113	     -8.83868880	     22.55407310	     46.50740740	      0.00000000	      0.00000000
      1.79450000	     -5.45309056	     -4.53641688	      9.15088006	      1.06597215	      0.92018667	      0.45955398	      3.99792266	      0.06367849	    -16.51396461	     18.36221806	     18.36221806	     17.81344971	     -3.68552836	     -2.20497592	     27.27465181	     -4.51125433	      0.40720808	     24.64389904	     24.64389904	      5.89845238	    -11.79012510	      1.26682183	     -9.78174096	      2.20722215	      2.06002972	     31.21447638	    -10.91032620	     -0.11848504	     74.59236153	     44.82076606	      0.00000000	      0.00000000	     -4.99892345	     -7.70616204	     -8.00434210	     23.00804884	     46.33084855	      0.00000000	      0.00000000
      1.80728571	     -5.34029199	     -4.34301429	      9.05685016	      1.06693190	      0.92072500	      0.45654336	      4.36550063	     -0.59474883	    -16.30358031	     20.18922744	     20.18922744	     17.77549816	     -4.15410913	     -2.45314428	     26.79989145	     -4.23179385	      0.31355601	     24.89680375	     24.89680375	      6.35313349	    -11.90853638	      1.09060663	     -9.92682138	      2.00944339	      2.24280010	     30.06531402	    -11.11720738	      0.18115229	     73.65035137	     44.84234938	      0.00000000	      0.00000000	     -4.44617302	     -7.79371762	     -7.93891692	     23.46847154	     46.32566622	      0.00000000	      0.00000000
      1.82007143	     -5.30839668	     -4.17995114	      8.93280592	      1.06768833	      0.92126251	      0.45352044	      4.99525524	     -1.27848005	    -16.01486453	     22.27518256	     22.27518256	     17.58801273	     -4.74843900	     -2.80098386	     26.36029417	     -3.95335901	      0.26594247	     25.03892439	     25.03892439	      6.80704822	    -12.10683601	      1.04207783	     -9.98615752	      1.85346831	      2.46235229	     28.93565064	    -11.38358578	      0.62623478	     72.29732596	     44.87302612	      0.00000000	      0.00000000	     -3.86281768	     -7.84557174	     -7.86204691	     23.98810050	     46.31828784	      0.00000000	      0.00000000
      1.83285714	     -5.28185875	     -4.08928296	      8.79236116	      1.06830378	      0.92187150	      0.45053249	      5.76548065	     -1.88714591	    -15.61257318	     24.51568992	     24.51568992	     17.11535324	     -5.59272107	     -3.55910850	     25.93220319	     -3.71611752	      0.31903017	     25.17372946	     25.17372946	      7.30791500	    -12.48181312	      1.40935887	     -9.95124066	      1.80379950	      2.35970485	     28.32350159	    -11.55033345	      1.90589792	     69.43165072	     44.93869139	      0.00000000	      0.00000000	     -3.55558569	     -7.93103919	     -7.60554147	     24.89047072	     46.26738397	      0.00000000	      0.00000000
